<?xml version="1.0" encoding="UTF-8"?>
<svg id="Layer_1" xmlns="http://www.w3.org/2000/svg" version="1.1" viewBox="0 0 800 800">
  <!-- Generator: Adobe Illustrator 29.8.1, SVG Export Plug-In . SVG Version: 2.1.1 Build 2)  -->
  <defs>
    <style>
      .st0 {
        fill: #fcc536;
      }
    </style>
  </defs>
  <path class="st0" d="M673.7,680.4c78.7-94.7,70.3-230.5-27-307.7-46.1-36.6-103.4-64-159.6-76.6,3.8-11.9,8.8-23,16.5-32.1,22.5-26.5,72.8-26.9,104.5-32.1,4.2-.7,7.9-5,9-9,.2-.8.4-1.7.6-2.5,1.9-7.2-2.3-13.4-9-15.8-12.2-4.3-24.2-8.4-36-13.1,22.3-6.9,45.1-12.4,66.8-21.1,10.4-4.1,13-20.7,0-23.8-13.2-3.1-26.3-5.5-39-9.1,39.6-9.5,79.3-24.1,108.1-52.3,7.6-7.4,2.1-21.3-8.7-21.1-54.6,1.2-114.5-.9-168.2,9-33.7,6.2-43.6,42.3-49.8,71.1-9.8,45.7-15.5,97.2-26.4,146.2-1.4-.2-2.9-.4-4.3-.6-73.5-8.1-147.7-.8-212,20.2-.7-4.3-1.3-8.7-1.5-13.1-1.7-35.7,46.9-68.1,70.1-89.3,3.2-2.9,4.7-8.4,3.3-12.5-.3-.8-.5-1.6-.8-2.4-2.3-6.8-8.7-10.7-15.8-9-12.9,3.2-25.3,6.3-38,8.8,15.4-18.7,32-36.3,46-56.1,6.1-8.7-4-21.7-13.9-18.1-13,4.7-25.5,10-38.2,14,27.8-29.5,53-63.2,61.8-102.3,2.2-9.8-8.6-20.5-18.1-13.9-26.3,18-51.4,37.7-77.3,56.4-20.3,14.7-42.6,26.9-60.3,44.8-23.3,23.6-12.1,58.2-1.8,85,15,38.9,31.5,77.3,46.5,116.2.6,1.7,1.3,3.4,2,5.2-60.6,26.4-123.5,88.4-129.7,188-4.4,71.1,15.1,148.1,69.8,192.1,42.5,34.2,94.9,58.7,147.7,69.2,167.7,33.5,287.4-2.9,358.4-67.5M287.1,627.1c-17.2,29.2-43.8,41-70.3,39.4-41.4-2.4-74.5-30.7-87.7-73.8-20-65.4,14.2-183.2,83.8-186.1,25-1,51.2,14.6,73,50.8,30.3,50.3,30.9,119.5,1.2,169.7ZM578.4,637.3c-55,62.9-120.3,71.5-168.7,49.3-60.4-27.7-83.2-97.9-49.4-181.6,39.7-98.4,163-150.9,228.5-90.2,63.9,59.2,39.1,165.9-10.4,222.5Z"/>
</svg>